# 3ds Max Wavefront OBJ Exporter v0.97b - (c)2007 guruware
# File Created: 05.03.2018 00:15:54

mtllib ceilinglampobj.mtl

#
# object Tube001
#

v  5.5357 50.6105 -35.7972
v  1.1825 76.2976 -10.0367
v  4.5416 76.2976 -8.8411
v  17.4429 50.6105 -31.5592
v  0.9004 76.2976 -8.3675
v  3.7057 76.2976 -7.3690
v  4.5359 50.6105 -29.8805
v  14.4797 50.6105 -26.3412
v  7.2893 76.2976 -6.5687
v  27.1826 50.6105 -23.5042
v  6.0003 76.2976 -5.4714
v  22.6134 50.6105 -19.6144
v  9.0940 76.2976 -3.4936
v  33.5799 50.6105 -12.6039
v  7.5074 76.2976 -2.9033
v  27.9559 50.6105 -10.5114
v  9.7382 76.2976 0.0133
v  35.8633 50.6105 -0.1729
v  8.0454 76.2976 0.0253
v  29.8628 50.6105 -0.1302
v  9.1441 76.2976 3.5290
v  33.7573 50.6105 12.2893
v  7.5492 76.2976 2.9613
v  28.1041 50.6105 10.2772
v  7.3833 76.2976 6.6295
v  27.5160 50.6105 23.2797
v  6.0788 76.2976 5.5506
v  22.8919 50.6105 19.4554
v  4.6684 76.2976 8.9408
v  17.8922 50.6105 31.4727
v  3.8115 76.2976 7.4808
v  14.8549 50.6105 26.2975
v  1.3266 76.2976 10.1841
v  6.0466 50.6105 35.8800
v  1.0208 76.2976 8.5191
v  4.9625 50.6105 29.9781
v  -2.2389 76.2976 10.2095
v  -6.5921 50.6105 35.9701
v  -1.9568 76.2976 8.5403
v  -5.5922 50.6105 30.0533
v  -5.5980 76.2976 9.0139
v  -18.4993 50.6105 31.7320
v  -4.7620 76.2976 7.5419
v  -15.5361 50.6105 26.5141
v  -8.3456 76.2976 6.7416
v  -28.2389 50.6105 23.6771
v  -7.0566 76.2976 5.6442
v  -23.6698 50.6105 19.7873
v  -10.1504 76.2976 3.6665
v  -34.6363 50.6105 12.7768
v  -8.5638 76.2976 3.0762
v  -29.0123 50.6105 10.6843
v  -10.7945 76.2976 0.1596
v  -36.9196 50.6105 0.3458
v  -9.1017 76.2976 0.1475
v  -30.9191 50.6105 0.3030
v  -10.2004 76.2976 -3.3561
v  -34.8137 50.6105 -12.1165
v  -8.6056 76.2976 -2.7885
v  -29.1604 50.6105 -10.1044
v  -8.4397 76.2976 -6.4566
v  -28.5724 50.6105 -23.1069
v  -7.1352 76.2976 -5.3777
v  -23.9482 50.6105 -19.2826
v  -5.7247 76.2976 -8.7679
v  -18.9485 50.6105 -31.2998
v  -4.8679 76.2976 -7.3079
v  -15.9112 50.6105 -26.1246
v  -2.3830 76.2976 -10.0112
v  -7.1029 50.6105 -35.7071
v  -2.0771 76.2976 -8.3463
v  -6.0188 50.6105 -29.8052
# 72 vertices

vn 0.1582 -0.3146 -0.9360
vn 0.0628 0.9263 -0.3716
vn 0.1861 0.9263 -0.3277
vn 0.4687 -0.3146 -0.8254
vn -0.1506 0.4275 0.8914
vn -0.4464 0.4275 0.7861
vn -0.0580 -0.9374 0.3433
vn -0.1719 -0.9374 0.3028
vn 0.2870 0.9263 -0.2443
vn 0.7228 -0.3146 -0.6153
vn -0.6883 0.4275 0.5860
vn -0.2651 -0.9374 0.2257
vn 0.3532 0.9263 -0.1314
vn 0.8897 -0.3146 -0.3310
vn -0.8473 0.4275 0.3152
vn -0.3263 -0.9374 0.1214
vn 0.3768 0.9263 -0.0027
vn 0.9492 -0.3146 -0.0068
vn -0.9040 0.4275 0.0064
vn -0.3482 -0.9374 0.0025
vn 0.3550 0.9263 0.1264
vn 0.8943 -0.3146 0.3183
vn -0.8517 0.4275 -0.3031
vn -0.3280 -0.9374 -0.1168
vn 0.2904 0.9263 0.2402
vn 0.7315 -0.3146 0.6050
vn -0.6966 0.4275 -0.5761
vn -0.2683 -0.9374 -0.2219
vn 0.1908 0.9263 0.3250
vn 0.4805 -0.3146 0.8187
vn -0.4576 0.4275 -0.7796
vn -0.1762 -0.9374 -0.3003
vn 0.0681 0.9263 0.3707
vn 0.1715 -0.3146 0.9336
vn -0.1633 0.4275 -0.8891
vn -0.0629 -0.9374 -0.3425
vn -0.0628 0.9263 0.3716
vn -0.1582 -0.3146 0.9360
vn 0.1506 0.4275 -0.8914
vn 0.0580 -0.9374 -0.3433
vn -0.1861 0.9263 0.3277
vn -0.4687 -0.3146 0.8254
vn 0.4464 0.4275 -0.7861
vn 0.1719 -0.9374 -0.3028
vn -0.2870 0.9263 0.2443
vn -0.7228 -0.3146 0.6153
vn 0.6883 0.4275 -0.5860
vn 0.2651 -0.9374 -0.2257
vn -0.3532 0.9263 0.1314
vn -0.8897 -0.3146 0.3310
vn 0.8473 0.4275 -0.3152
vn 0.3263 -0.9374 -0.1214
vn -0.3768 0.9263 0.0027
vn -0.9492 -0.3146 0.0068
vn 0.9040 0.4275 -0.0064
vn 0.3482 -0.9374 -0.0025
vn -0.3550 0.9263 -0.1264
vn -0.8943 -0.3146 -0.3183
vn 0.8517 0.4275 0.3031
vn 0.3280 -0.9374 0.1168
vn -0.2904 0.9263 -0.2402
vn -0.7315 -0.3146 -0.6050
vn 0.6966 0.4275 0.5761
vn 0.2683 -0.9374 0.2219
vn -0.1908 0.9263 -0.3250
vn -0.4805 -0.3146 -0.8187
vn 0.4576 0.4275 0.7796
vn 0.1762 -0.9374 0.3003
vn -0.0681 0.9263 -0.3707
vn -0.1715 -0.3146 -0.9336
vn 0.1633 0.4275 0.8891
vn 0.0629 -0.9374 0.3425
# 72 vertex normals

vt 0.3377 0.3770 0.0000
vt 0.3520 0.2676 0.0000
vt 0.3635 0.2676 0.0000
vt 0.3785 0.3769 0.0000
vt 0.3648 0.2669 0.0000
vt 0.3636 0.2600 0.0000
vt 0.3752 0.2559 0.0000
vt 0.3787 0.2619 0.0000
vt 0.1809 0.1315 0.0000
vt 0.2638 0.0753 0.0000
vt 0.2793 0.1056 0.0000
vt 0.1853 0.1401 0.0000
vt 0.2514 0.5761 0.0000
vt 0.2547 0.5563 0.0000
vt 0.2947 0.5705 0.0000
vt 0.2847 0.5880 0.0000
vt 0.3746 0.2645 0.0000
vt 0.4177 0.3661 0.0000
vt 0.3847 0.2480 0.0000
vt 0.3900 0.2526 0.0000
vt 0.2870 0.1387 0.0000
vt 0.1874 0.1494 0.0000
vt 0.3273 0.5975 0.0000
vt 0.3120 0.6106 0.0000
vt 0.3845 0.2587 0.0000
vt 0.4528 0.3453 0.0000
vt 0.3909 0.2374 0.0000
vt 0.3975 0.2398 0.0000
vt 0.1403 0.1921 0.0000
vt 0.1200 0.2902 0.0000
vt 0.0878 0.2792 0.0000
vt 0.1312 0.1890 0.0000
vt 0.3488 0.6341 0.0000
vt 0.3299 0.6411 0.0000
vt 0.3925 0.2504 0.0000
vt 0.4811 0.3161 0.0000
vt 0.3932 0.2253 0.0000
vt 0.4002 0.2253 0.0000
vt 0.0592 0.2608 0.0000
vt 0.1232 0.1838 0.0000
vt 0.3564 0.6758 0.0000
vt 0.3363 0.6759 0.0000
vt 0.3980 0.2404 0.0000
vt 0.5008 0.2804 0.0000
vt 0.3911 0.2132 0.0000
vt 0.3977 0.2108 0.0000
vt 0.0358 0.2361 0.0000
vt 0.1166 0.1769 0.0000
vt 0.3494 0.7176 0.0000
vt 0.3304 0.7108 0.0000
vt 0.4007 0.2292 0.0000
vt 0.5104 0.2408 0.0000
vt 0.3850 0.2025 0.0000
vt 0.3904 0.1980 0.0000
vt 0.0192 0.2064 0.0000
vt 0.1119 0.1685 0.0000
vt 0.3284 0.7544 0.0000
vt 0.3129 0.7416 0.0000
vt 0.4004 0.2177 0.0000
vt 0.5093 0.2001 0.0000
vt 0.3757 0.1945 0.0000
vt 0.3792 0.1884 0.0000
vt 0.0103 0.1736 0.0000
vt 0.1094 0.1592 0.0000
vt 0.2962 0.7819 0.0000
vt 0.2860 0.7645 0.0000
vt 0.3971 0.2067 0.0000
vt 0.4975 0.1611 0.0000
vt 0.3641 0.1902 0.0000
vt 0.3654 0.1833 0.0000
vt 0.0096 0.1396 0.0000
vt 0.1092 0.1496 0.0000
vt 0.2564 0.7967 0.0000
vt 0.2528 0.7769 0.0000
vt 0.3910 0.1970 0.0000
vt 0.4759 0.1266 0.0000
vt 0.3518 0.1901 0.0000
vt 0.3506 0.1832 0.0000
vt 0.0171 0.1064 0.0000
vt 0.1113 0.1403 0.0000
vt 0.2141 0.7970 0.0000
vt 0.2174 0.7771 0.0000
vt 0.3826 0.1892 0.0000
vt 0.4460 0.0989 0.0000
vt 0.3402 0.1942 0.0000
vt 0.3368 0.1881 0.0000
vt 0.0324 0.0760 0.0000
vt 0.1156 0.1317 0.0000
vt 0.1741 0.7828 0.0000
vt 0.1841 0.7653 0.0000
vt 0.3724 0.1839 0.0000
vt 0.4099 0.0801 0.0000
vt 0.3307 0.2021 0.0000
vt 0.3254 0.1975 0.0000
vt 0.0546 0.0503 0.0000
vt 0.1219 0.1244 0.0000
vt 0.1415 0.7557 0.0000
vt 0.1568 0.7427 0.0000
vt 0.2173 0.1620 0.0000
vt 0.3180 0.2069 0.0000
vt 0.3148 0.2180 0.0000
vt 0.2058 0.2010 0.0000
vt 0.3245 0.2127 0.0000
vt 0.3179 0.2102 0.0000
vt 0.0824 0.0307 0.0000
vt 0.1297 0.1189 0.0000
vt 0.1200 0.7192 0.0000
vt 0.1389 0.7122 0.0000
vt 0.3145 0.2295 0.0000
vt 0.2049 0.2418 0.0000
vt 0.3223 0.2248 0.0000
vt 0.3153 0.2247 0.0000
vt 0.1142 0.0184 0.0000
vt 0.1387 0.1154 0.0000
vt 0.1124 0.6775 0.0000
vt 0.1325 0.6774 0.0000
vt 0.3173 0.2406 0.0000
vt 0.2148 0.2813 0.0000
vt 0.3243 0.2369 0.0000
vt 0.3177 0.2393 0.0000
vt 0.1479 0.0141 0.0000
vt 0.1482 0.1142 0.0000
vt 0.1194 0.6357 0.0000
vt 0.1384 0.6425 0.0000
vt 0.3229 0.2506 0.0000
vt 0.2347 0.3168 0.0000
vt 0.3304 0.2476 0.0000
vt 0.3250 0.2521 0.0000
vt 0.1817 0.0182 0.0000
vt 0.1577 0.1154 0.0000
vt 0.1403 0.5989 0.0000
vt 0.1559 0.6117 0.0000
vt 0.3310 0.2588 0.0000
vt 0.2632 0.3459 0.0000
vt 0.3398 0.2556 0.0000
vt 0.3362 0.2616 0.0000
vt 0.2135 0.0303 0.0000
vt 0.1667 0.1188 0.0000
vt 0.1726 0.5714 0.0000
vt 0.1828 0.5887 0.0000
vt 0.3409 0.2646 0.0000
vt 0.2984 0.3664 0.0000
vt 0.3513 0.2599 0.0000
vt 0.3501 0.2668 0.0000
vt 0.2414 0.0497 0.0000
vt 0.1746 0.1243 0.0000
vt 0.2123 0.5566 0.0000
vt 0.2160 0.5764 0.0000
# 148 texture coords

o Tube001
g Tube001
usemtl 01___Default
s 2
f 1/1/1 2/2/2 3/3/3 4/4/4 
s 4
f 2/5/2 5/6/5 6/7/6 3/8/3 
s 2
f 5/9/5 7/10/7 8/11/8 6/12/6 
s 4
f 7/13/7 1/14/1 4/15/4 8/16/8 
s 2
f 4/4/4 3/3/3 9/17/9 10/18/10 
s 4
f 3/8/3 6/7/6 11/19/11 9/20/9 
s 2
f 6/12/6 8/11/8 12/21/12 11/22/11 
s 4
f 8/16/8 4/15/4 10/23/10 12/24/12 
s 2
f 10/18/10 9/17/9 13/25/13 14/26/14 
s 4
f 9/20/9 11/19/11 15/27/15 13/28/13 
s 2
f 11/29/11 12/30/12 16/31/16 15/32/15 
s 4
f 12/24/12 10/23/10 14/33/14 16/34/16 
s 2
f 14/26/14 13/25/13 17/35/17 18/36/18 
s 4
f 13/28/13 15/27/15 19/37/19 17/38/17 
s 2
f 15/32/15 16/31/16 20/39/20 19/40/19 
s 4
f 16/34/16 14/33/14 18/41/18 20/42/20 
s 2
f 18/36/18 17/35/17 21/43/21 22/44/22 
s 4
f 17/38/17 19/37/19 23/45/23 21/46/21 
s 2
f 19/40/19 20/39/20 24/47/24 23/48/23 
s 4
f 20/42/20 18/41/18 22/49/22 24/50/24 
s 2
f 22/44/22 21/43/21 25/51/25 26/52/26 
s 4
f 21/46/21 23/45/23 27/53/27 25/54/25 
s 2
f 23/48/23 24/47/24 28/55/28 27/56/27 
s 4
f 24/50/24 22/49/22 26/57/26 28/58/28 
s 2
f 26/52/26 25/51/25 29/59/29 30/60/30 
s 4
f 25/54/25 27/53/27 31/61/31 29/62/29 
s 2
f 27/56/27 28/55/28 32/63/32 31/64/31 
s 4
f 28/58/28 26/57/26 30/65/30 32/66/32 
s 2
f 30/60/30 29/59/29 33/67/33 34/68/34 
s 4
f 29/62/29 31/61/31 35/69/35 33/70/33 
s 2
f 31/64/31 32/63/32 36/71/36 35/72/35 
s 4
f 32/66/32 30/65/30 34/73/34 36/74/36 
s 2
f 34/68/34 33/67/33 37/75/37 38/76/38 
s 4
f 33/70/33 35/69/35 39/77/39 37/78/37 
s 2
f 35/72/35 36/71/36 40/79/40 39/80/39 
s 4
f 36/74/36 34/73/34 38/81/38 40/82/40 
s 2
f 38/76/38 37/75/37 41/83/41 42/84/42 
s 4
f 37/78/37 39/77/39 43/85/43 41/86/41 
s 2
f 39/80/39 40/79/40 44/87/44 43/88/43 
s 4
f 40/82/40 38/81/38 42/89/42 44/90/44 
s 2
f 42/84/42 41/83/41 45/91/45 46/92/46 
s 4
f 41/86/41 43/85/43 47/93/47 45/94/45 
s 2
f 43/88/43 44/87/44 48/95/48 47/96/47 
s 4
f 44/90/44 42/89/42 46/97/46 48/98/48 
s 2
f 46/99/46 45/100/45 49/101/49 50/102/50 
s 4
f 45/94/45 47/93/47 51/103/51 49/104/49 
s 2
f 47/96/47 48/95/48 52/105/52 51/106/51 
s 4
f 48/98/48 46/97/46 50/107/50 52/108/52 
s 2
f 50/102/50 49/101/49 53/109/53 54/110/54 
s 4
f 49/104/49 51/103/51 55/111/55 53/112/53 
s 2
f 51/106/51 52/105/52 56/113/56 55/114/55 
s 4
f 52/108/52 50/107/50 54/115/54 56/116/56 
s 2
f 54/110/54 53/109/53 57/117/57 58/118/58 
s 4
f 53/112/53 55/111/55 59/119/59 57/120/57 
s 2
f 55/114/55 56/113/56 60/121/60 59/122/59 
s 4
f 56/116/56 54/115/54 58/123/58 60/124/60 
s 2
f 58/118/58 57/117/57 61/125/61 62/126/62 
s 4
f 57/120/57 59/119/59 63/127/63 61/128/61 
s 2
f 59/122/59 60/121/60 64/129/64 63/130/63 
s 4
f 60/124/60 58/123/58 62/131/62 64/132/64 
s 2
f 62/126/62 61/125/61 65/133/65 66/134/66 
s 4
f 61/128/61 63/127/63 67/135/67 65/136/65 
s 2
f 63/130/63 64/129/64 68/137/68 67/138/67 
s 4
f 64/132/64 62/131/62 66/139/66 68/140/68 
s 2
f 66/134/66 65/133/65 69/141/69 70/142/70 
s 4
f 65/136/65 67/135/67 71/143/71 69/144/69 
s 2
f 67/138/67 68/137/68 72/145/72 71/146/71 
s 4
f 68/140/68 66/139/66 70/147/70 72/148/72 
s 2
f 70/142/70 69/141/69 2/2/2 1/1/1 
s 4
f 69/144/69 71/143/71 5/6/5 2/5/2 
s 2
f 71/146/71 72/145/72 7/10/7 5/9/5 
s 4
f 72/148/72 70/147/70 1/14/1 7/13/7 
# 72 polygons

#
# object Sphere001
#

v  -0.3575 78.7611 0.1571
v  -0.3575 77.0253 -4.9678
v  -3.3698 77.0253 -3.9890
v  -5.2316 77.0253 -1.4266
v  -5.2316 77.0253 1.7408
v  -3.3698 77.0253 4.3032
v  -0.3575 77.0253 5.2820
v  2.6548 77.0253 4.3032
v  4.5165 77.0253 1.7408
v  4.5165 77.0253 -1.4266
v  2.6548 77.0253 -3.9890
v  -0.3575 62.9718 -12.1783
v  -7.6081 62.9718 -9.8224
v  -12.0892 62.9718 -3.6547
v  -12.0892 62.9718 3.9689
v  -7.6081 62.9718 10.1366
v  -0.3575 62.9718 12.4925
v  6.8931 62.9718 10.1366
v  11.3741 62.9718 3.9689
v  11.3741 62.9718 -3.6548
v  6.8930 62.9718 -9.8224
v  -0.3575 62.5981 -11.6525
v  -0.3575 54.9237 -11.6525
v  -7.2990 54.9237 -9.3971
v  -7.2990 62.5981 -9.3971
v  -11.5891 54.9237 -3.4923
v  -11.5891 62.5981 -3.4923
v  -11.5891 54.9237 3.8065
v  -11.5891 62.5981 3.8065
v  -7.2990 54.9237 9.7113
v  -7.2990 62.5981 9.7113
v  -0.3575 54.9237 11.9667
v  -0.3575 62.5981 11.9667
v  6.5840 54.9237 9.7113
v  6.5840 62.5981 9.7113
v  10.8741 54.9237 3.8065
v  10.8741 62.5981 3.8065
v  10.8741 54.9237 -3.4923
v  10.8741 62.5981 -3.4923
v  6.5840 54.9237 -9.3971
v  6.5840 62.5981 -9.3971
v  -0.3575 48.7150 -7.1416
v  -4.6476 48.7150 -5.7477
v  -7.2990 48.7150 -2.0983
v  -7.2990 48.7150 2.4125
v  -4.6476 48.7150 6.0619
v  -0.3575 48.7150 7.4558
v  3.9326 48.7150 6.0619
v  6.5840 48.7150 2.4125
v  6.5840 48.7150 -2.0983
v  3.9326 48.7150 -5.7477
v  -0.3575 46.3435 0.1571
v  -0.3575 68.3801 -7.7204
v  -4.9878 68.3801 -6.2159
v  -7.8494 68.3801 -2.2772
v  -7.8494 68.3801 2.5914
v  -4.9878 68.3801 6.5301
v  -0.3575 68.3801 8.0346
v  4.2727 68.3801 6.5301
v  7.1344 68.3801 2.5914
v  7.1344 68.3801 -2.2772
v  4.2727 68.3801 -6.2159
# 62 vertices

vn 0.0000 1.0000 0.0000
vn -0.0000 0.7219 -0.6920
vn -0.4067 0.7219 -0.5598
vn -0.6581 0.7219 -0.2138
vn -0.6581 0.7219 0.2138
vn -0.4067 0.7219 0.5598
vn 0.0000 0.7219 0.6920
vn 0.4067 0.7219 0.5598
vn 0.6581 0.7219 0.2138
vn 0.6581 0.7219 -0.2138
vn 0.4067 0.7219 -0.5598
vn -0.0000 -0.7504 -0.6609
vn -0.3885 -0.7504 -0.5347
vn -0.6286 -0.7504 -0.2042
vn -0.6286 -0.7504 0.2042
vn -0.3885 -0.7504 0.5347
vn -0.0000 -0.7504 0.6609
vn 0.3885 -0.7504 0.5347
vn 0.6286 -0.7504 0.2042
vn 0.6286 -0.7504 -0.2042
vn 0.3885 -0.7504 -0.5347
vn -0.0000 0.2791 -0.9603
vn -0.0000 -0.2925 -0.9563
vn -0.5621 -0.2925 -0.7736
vn -0.5644 0.2791 -0.7769
vn -0.9095 -0.2925 -0.2955
vn -0.9133 0.2791 -0.2967
vn -0.9095 -0.2925 0.2955
vn -0.9133 0.2791 0.2967
vn -0.5621 -0.2925 0.7736
vn -0.5644 0.2791 0.7769
vn -0.0000 -0.2925 0.9563
vn -0.0000 0.2791 0.9603
vn 0.5621 -0.2925 0.7736
vn 0.5644 0.2791 0.7769
vn 0.9095 -0.2925 0.2955
vn 0.9133 0.2791 0.2967
vn 0.9095 -0.2925 -0.2955
vn 0.9133 0.2791 -0.2967
vn 0.5621 -0.2925 -0.7736
vn 0.5644 0.2791 -0.7769
vn -0.0000 -0.7804 -0.6252
vn -0.3675 -0.7804 -0.5058
vn -0.5946 -0.7804 -0.1932
vn -0.5946 -0.7804 0.1932
vn -0.3675 -0.7804 0.5058
vn 0.0000 -0.7804 0.6252
vn 0.3675 -0.7804 0.5058
vn 0.5946 -0.7804 0.1932
vn 0.5946 -0.7804 -0.1932
vn 0.3675 -0.7804 -0.5058
vn 0.0000 -1.0000 0.0000
vn 0.0000 -0.8982 -0.4396
vn -0.2584 -0.8982 -0.3556
vn -0.4181 -0.8982 -0.1358
vn -0.4181 -0.8982 0.1358
vn -0.2584 -0.8982 0.3556
vn 0.0000 -0.8982 0.4396
vn 0.2584 -0.8982 0.3556
vn 0.4181 -0.8982 0.1358
vn 0.4181 -0.8982 -0.1358
vn 0.2584 -0.8982 -0.3556
# 62 vertex normals

vt 0.5501 0.1901 0.0000
vt 0.5501 0.2219 0.0000
vt 0.5314 0.2158 0.0000
vt 0.5198 0.1999 0.0000
vt 0.5198 0.1802 0.0000
vt 0.5314 0.1643 0.0000
vt 0.5501 0.1583 0.0000
vt 0.5688 0.1643 0.0000
vt 0.5803 0.1802 0.0000
vt 0.5803 0.1999 0.0000
vt 0.5688 0.2158 0.0000
vt 0.8674 0.3999 0.0000
vt 0.9389 0.4610 0.0000
vt 0.9048 0.4910 0.0000
vt 0.8533 0.4123 0.0000
vt 0.8637 0.5102 0.0000
vt 0.8362 0.4203 0.0000
vt 0.8189 0.5173 0.0000
vt 0.8176 0.4232 0.0000
vt 0.8362 0.2925 0.0000
vt 0.8637 0.2026 0.0000
vt 0.9048 0.2219 0.0000
vt 0.8533 0.3005 0.0000
vt 0.9389 0.2519 0.0000
vt 0.8674 0.3130 0.0000
vt 0.9632 0.2902 0.0000
vt 0.8775 0.3289 0.0000
vt 0.9759 0.3337 0.0000
vt 0.8828 0.3470 0.0000
vt 0.9759 0.3791 0.0000
vt 0.8828 0.3659 0.0000
vt 0.9632 0.4227 0.0000
vt 0.8775 0.3840 0.0000
vt 0.8516 0.0805 0.0000
vt 0.8715 0.0402 0.0000
vt 0.9117 0.0637 0.0000
vt 0.8854 0.1002 0.0000
vt 0.9476 0.0931 0.0000
vt 0.9165 0.1259 0.0000
vt 0.9800 0.1256 0.0000
vt 0.9458 0.1597 0.0000
vt 0.5992 0.1333 0.0000
vt 0.5661 0.0942 0.0000
vt 0.6044 0.0640 0.0000
vt 0.6310 0.1031 0.0000
vt 0.6454 0.0402 0.0000
vt 0.6645 0.0818 0.0000
vt 0.6894 0.0239 0.0000
vt 0.7006 0.0677 0.0000
vt 0.7353 0.0157 0.0000
vt 0.7385 0.0605 0.0000
vt 0.7819 0.0157 0.0000
vt 0.7771 0.0604 0.0000
vt 0.8278 0.0240 0.0000
vt 0.8151 0.0671 0.0000
vt 0.6498 0.4654 0.0000
vt 0.6898 0.4434 0.0000
vt 0.7068 0.4642 0.0000
vt 0.6773 0.4991 0.0000
vt 0.7301 0.4776 0.0000
vt 0.7150 0.5207 0.0000
vt 0.7566 0.4817 0.0000
vt 0.7579 0.5274 0.0000
vt 0.8102 0.3020 0.0000
vt 0.7890 0.3424 0.0000
vt 0.7633 0.3344 0.0000
vt 0.7687 0.2891 0.0000
vt 0.7365 0.3362 0.0000
vt 0.7254 0.2919 0.0000
vt 0.7121 0.3473 0.0000
vt 0.6859 0.3100 0.0000
vt 0.6933 0.3665 0.0000
vt 0.6554 0.3410 0.0000
vt 0.6826 0.3911 0.0000
vt 0.6381 0.3808 0.0000
vt 0.6814 0.4179 0.0000
vt 0.6361 0.4242 0.0000
vt 0.7388 0.1980 0.0000
vt 0.7485 0.2420 0.0000
vt 0.7207 0.2394 0.0000
vt 0.7726 0.2279 0.0000
vt 0.7837 0.2023 0.0000
vt 0.7777 0.1751 0.0000
vt 0.7568 0.1566 0.0000
vt 0.7290 0.1539 0.0000
vt 0.7050 0.1680 0.0000
vt 0.6938 0.1936 0.0000
vt 0.6998 0.2209 0.0000
vt 0.8338 0.1181 0.0000
vt 0.8608 0.1345 0.0000
vt 0.8846 0.1558 0.0000
vt 0.9040 0.1823 0.0000
vt 0.6362 0.1571 0.0000
vt 0.6571 0.1346 0.0000
vt 0.6832 0.1180 0.0000
vt 0.7121 0.1069 0.0000
vt 0.7426 0.1014 0.0000
vt 0.7738 0.1014 0.0000
vt 0.8045 0.1070 0.0000
vt 0.5519 0.4791 0.0000
vt 0.5788 0.4900 0.0000
vt 0.5711 0.5310 0.0000
vt 0.5290 0.5140 0.0000
vt 0.6078 0.4896 0.0000
vt 0.6164 0.5304 0.0000
vt 0.6344 0.4781 0.0000
vt 0.6581 0.5124 0.0000
vt 0.6078 0.3454 0.0000
vt 0.5788 0.3451 0.0000
vt 0.5711 0.3041 0.0000
vt 0.6164 0.3046 0.0000
vt 0.5519 0.3559 0.0000
vt 0.5290 0.3211 0.0000
vt 0.5313 0.3763 0.0000
vt 0.4967 0.3530 0.0000
vt 0.5201 0.4030 0.0000
vt 0.4792 0.3948 0.0000
vt 0.5201 0.4320 0.0000
vt 0.4792 0.4402 0.0000
vt 0.5313 0.4588 0.0000
vt 0.4967 0.4821 0.0000
# 121 texture coords

o Sphere001
g Sphere001
usemtl 01___Default
s 1
f 73/149/73 74/150/74 75/151/75 
f 73/149/73 75/151/75 76/152/76 
f 73/149/73 76/152/76 77/153/77 
f 73/149/73 77/153/77 78/154/78 
f 73/149/73 78/154/78 79/155/79 
f 73/149/73 79/155/79 80/156/80 
f 73/149/73 80/156/80 81/157/81 
f 73/149/73 81/157/81 82/158/82 
f 73/149/73 82/158/82 83/159/83 
f 73/149/73 83/159/83 74/150/74 
f 74/160/74 84/161/84 85/162/85 75/163/75 
f 75/163/75 85/162/85 86/164/86 76/165/76 
f 76/165/76 86/164/86 87/166/87 77/167/77 
f 77/168/77 87/169/87 88/170/88 78/171/78 
f 78/171/78 88/170/88 89/172/89 79/173/79 
f 79/173/79 89/172/89 90/174/90 80/175/80 
f 80/175/80 90/174/90 91/176/91 81/177/81 
f 81/177/81 91/176/91 92/178/92 82/179/82 
f 82/179/82 92/178/92 93/180/93 83/181/83 
f 83/181/83 93/180/93 84/161/84 74/160/74 
f 94/182/94 95/183/95 96/184/96 97/185/97 
f 97/185/97 96/184/96 98/186/98 99/187/99 
f 99/187/99 98/186/98 100/188/100 101/189/101 
f 101/190/101 100/191/100 102/192/102 103/193/103 
f 103/193/103 102/192/102 104/194/104 105/195/105 
f 105/195/105 104/194/104 106/196/106 107/197/107 
f 107/197/107 106/196/106 108/198/108 109/199/109 
f 109/199/109 108/198/108 110/200/110 111/201/111 
f 111/201/111 110/200/110 112/202/112 113/203/113 
f 113/203/113 112/202/112 95/183/95 94/182/94 
f 95/204/95 114/205/114 115/206/115 96/207/96 
f 96/207/96 115/206/115 116/208/116 98/209/98 
f 98/209/98 116/208/116 117/210/117 100/211/100 
f 100/212/100 117/213/117 118/214/118 102/215/102 
f 102/215/102 118/214/118 119/216/119 104/217/104 
f 104/217/104 119/216/119 120/218/120 106/219/106 
f 106/219/106 120/218/120 121/220/121 108/221/108 
f 108/221/108 121/220/121 122/222/122 110/223/110 
f 110/223/110 122/222/122 123/224/123 112/225/112 
f 112/225/112 123/224/123 114/205/114 95/204/95 
f 124/226/124 115/227/115 114/228/114 
f 124/226/124 116/229/116 115/227/115 
f 124/226/124 117/230/117 116/229/116 
f 124/226/124 118/231/118 117/230/117 
f 124/226/124 119/232/119 118/231/118 
f 124/226/124 120/233/120 119/232/119 
f 124/226/124 121/234/121 120/233/120 
f 124/226/124 122/235/122 121/234/121 
f 124/226/124 123/236/123 122/235/122 
f 124/226/124 114/228/114 123/236/123 
f 125/237/125 94/182/94 97/185/97 126/238/126 
f 126/238/126 97/185/97 99/187/99 127/239/127 
f 127/239/127 99/187/99 101/189/101 128/240/128 
f 128/241/128 101/190/101 103/193/103 129/242/129 
f 129/242/129 103/193/103 105/195/105 130/243/130 
f 130/243/130 105/195/105 107/197/107 131/244/131 
f 131/244/131 107/197/107 109/199/109 132/245/132 
f 132/245/132 109/199/109 111/201/111 133/246/133 
f 133/246/133 111/201/111 113/203/113 134/247/134 
f 134/247/134 113/203/113 94/182/94 125/237/125 
s off
f 125/248/125 126/249/126 85/250/85 84/251/84 
f 126/249/126 127/252/127 86/253/86 85/250/85 
f 127/252/127 128/254/128 87/255/87 86/253/86 
f 128/256/128 129/257/129 88/258/88 87/259/87 
f 129/257/129 130/260/130 89/261/89 88/258/88 
f 130/260/130 131/262/131 90/263/90 89/261/89 
f 131/262/131 132/264/132 91/265/91 90/263/90 
f 132/264/132 133/266/133 92/267/92 91/265/91 
f 133/266/133 134/268/134 93/269/93 92/267/92 
f 134/268/134 125/248/125 84/251/84 93/269/93 
# 50 polygons - 20 triangles

#
# object Box001
#

v  -0.4905 184.3125 0.3163
v  -0.1669 184.3125 0.3163
v  -0.1669 184.3125 0.0077
v  -0.4905 184.3125 0.0077
v  -0.7707 78.1630 0.5835
v  0.1133 78.1630 0.5835
v  0.1133 79.7486 0.5835
v  -0.7707 79.7486 0.5835
v  0.1133 78.1630 -0.2595
v  0.1133 79.7486 -0.2595
v  -0.7707 78.1630 -0.2595
v  -0.7707 79.7486 -0.2595
v  0.1133 80.4353 0.5835
v  -0.1669 82.0857 0.3163
v  -0.4905 82.0857 0.3163
v  -0.7707 80.4353 0.5835
v  0.1133 80.4353 -0.2595
v  -0.1669 82.0857 0.0077
v  -0.7707 80.4353 -0.2595
v  -0.4905 82.0857 0.0077
v  -0.7707 78.8573 4.9703
v  -0.7707 79.5440 4.9703
v  0.1133 78.8573 4.9703
v  0.1133 79.5440 4.9703
v  0.1133 79.5440 -4.6979
v  -0.7707 79.5440 -4.6979
v  0.1133 78.8573 -4.6979
v  -0.7707 78.8573 -4.6979
v  -0.7707 75.4623 9.7237
v  -0.7707 76.1490 9.7237
v  0.1133 75.4623 9.7237
v  0.1133 76.1490 9.7237
v  0.1133 76.1373 -9.6048
v  -0.7707 76.1373 -9.6048
v  0.1133 75.4505 -9.6048
v  -0.7707 75.4505 -9.6048
# 36 vertices

vn -0.5774 0.5774 0.5774
vn 0.5774 0.5774 0.5774
vn 0.5774 0.5774 -0.5774
vn -0.5774 0.5774 -0.5774
vn -0.7071 0.0000 0.7071
vn 0.7071 0.0000 0.7071
vn 0.9141 -0.2984 0.2746
vn -0.9141 -0.2984 0.2746
vn 0.7071 0.0000 -0.7071
vn 0.9140 -0.2984 -0.2749
vn -0.7071 0.0000 -0.7071
vn -0.9140 -0.2984 -0.2749
vn 0.8397 0.4705 0.2710
vn 0.7048 0.2398 0.6677
vn -0.7048 0.2398 0.6677
vn -0.8397 0.4705 0.2710
vn 0.8398 0.4705 -0.2707
vn 0.7048 0.2398 -0.6677
vn -0.8398 0.4705 -0.2707
vn -0.7048 0.2398 -0.6677
vn -0.7305 -0.6715 -0.1247
vn -0.6852 0.7161 0.1330
vn 0.7305 -0.6715 -0.1247
vn 0.6852 0.7161 0.1330
vn 0.6859 0.7161 -0.1298
vn -0.6859 0.7161 -0.1298
vn 0.7297 -0.6728 0.1220
vn -0.7297 -0.6728 0.1220
vn -0.6337 -0.7425 -0.2170
vn -0.7632 0.6202 0.1812
vn 0.6337 -0.7425 -0.2170
vn 0.7632 0.6202 0.1812
vn 0.7619 0.6231 -0.1770
vn -0.7619 0.6231 -0.1770
vn 0.6358 -0.7425 0.2109
vn -0.6358 -0.7425 0.2109
# 36 vertex normals

vt 0.7335 0.8179 0.0000
vt 0.7335 0.8968 0.0000
vt 0.6582 0.8968 0.0000
vt 0.6582 0.8179 0.0000
vt 0.9670 0.5568 0.0000
vt 0.9670 0.6178 0.0000
vt 0.9524 0.6178 0.0000
vt 0.9524 0.5568 0.0000
vt 0.1043 0.6240 0.0000
vt 0.1043 0.6538 0.0000
vt 0.0482 0.6538 0.0000
vt 0.0482 0.6240 0.0000
vt 0.9604 0.8513 0.0000
vt 0.7250 0.7926 0.0000
vt 0.7250 0.7248 0.0000
vt 0.9604 0.6661 0.0000
vt 0.0239 0.6538 0.0000
vt 0.0239 0.6240 0.0000
vt 0.0797 0.8099 0.0000
vt 0.0554 0.8099 0.0000
vt 0.6588 0.6178 0.0000
vt 0.6588 0.5568 0.0000
vt 0.0554 0.4678 0.0000
vt 0.0797 0.4678 0.0000
vt 0.3669 0.9684 0.0000
vt 0.3669 0.9128 0.0000
vt 0.6475 0.9128 0.0000
vt 0.6475 0.9684 0.0000
vt 0.2000 0.9808 0.0000
vt 0.1757 0.9808 0.0000
vt 0.3597 0.6178 0.0000
vt 0.3597 0.5568 0.0000
vt 0.1757 0.2970 0.0000
vt 0.2000 0.2970 0.0000
vt 0.9661 0.9128 0.0000
vt 0.9661 0.9684 0.0000
vt 0.3596 0.6178 0.0000
vt 0.3596 0.5568 0.0000
vt 0.3679 0.7926 0.0000
vt 0.3679 0.7248 0.0000
# 40 texture coords

o Box001
g Box001
usemtl 01___Default
s 4
f 135/270/135 136/271/136 137/272/137 138/273/138 
s 8
f 139/274/139 140/275/140 141/276/141 142/277/142 
s 16
f 140/278/140 143/279/143 144/280/144 141/281/141 
s 32
f 143/274/143 145/275/145 146/276/146 144/277/144 
s 64
f 145/278/145 139/279/139 142/280/142 146/281/146 
s 8
f 147/282/147 148/283/148 149/284/149 150/285/150 
s 16
f 151/282/151 152/283/152 148/284/148 147/285/147 
s 32
f 153/282/153 154/283/154 152/284/152 151/285/151 
s 64
f 150/282/150 149/283/149 154/284/154 153/285/153 
s 16
f 144/280/144 151/286/151 147/287/147 141/281/141 
s 64
f 142/280/142 150/286/150 153/287/153 146/281/146 
s off
f 150/286/150 142/280/142 155/288/155 156/289/156 
f 142/277/142 141/276/141 157/290/157 155/291/155 
f 141/281/141 147/287/147 158/292/158 157/293/157 
f 147/294/147 150/295/150 156/296/156 158/297/158 
f 153/294/153 151/295/151 159/296/159 160/297/160 
f 151/286/151 144/280/144 161/288/161 159/289/159 
f 144/277/144 146/276/146 162/290/162 161/291/161 
f 146/281/146 153/287/153 160/292/160 162/293/162 
f 155/288/155 163/298/163 164/299/164 156/289/156 
f 157/290/157 165/300/165 163/301/163 155/291/155 
f 158/292/158 166/302/166 165/303/165 157/293/157 
f 156/296/156 164/304/164 166/305/166 158/297/158 
f 159/296/159 167/304/167 168/305/168 160/297/160 
f 161/288/161 169/298/169 167/299/167 159/289/159 
f 162/290/162 170/306/170 169/307/169 161/291/161 
f 160/292/160 168/302/168 170/303/170 162/293/162 
f 149/284/149 148/283/148 136/308/136 135/309/135 
f 148/284/148 152/283/152 137/308/137 136/309/136 
f 152/284/152 154/283/154 138/308/138 137/309/137 
f 154/284/154 149/283/149 135/308/135 138/309/138 
# 31 polygons

