# 3ds Max Wavefront OBJ Exporter v0.97b - (c)2007 guruware
# File Created: 16.03.2018 17:17:50

mtllib shack.mtl

#
# object Box001
#

v  -82.3803 0.2842 45.4122
v  -82.3803 0.2842 -73.9803
v  -77.6197 0.2842 -73.9803
v  -77.6197 0.2842 45.4122
v  -82.3803 100.0490 45.4122
v  -77.6197 100.0490 45.4122
v  -77.6197 100.0490 -73.9803
v  -82.3803 100.0490 -73.9803
# 8 vertices

vn -0.5774 -0.5774 0.5774
vn -0.5774 -0.5774 -0.5774
vn 0.5774 -0.5774 -0.5774
vn 0.5774 -0.5774 0.5774
vn -0.5774 0.5774 0.5774
vn 0.5774 0.5774 0.5774
vn 0.5774 0.5774 -0.5774
vn -0.5774 0.5774 -0.5774
# 8 vertex normals

vt 0.9129 0.0648 0.0000
vt 0.9129 0.0285 0.0000
vt 0.9144 0.0285 0.0000
vt 0.9144 0.0648 0.0000
vt 0.8981 0.0201 0.0000
vt 0.9004 0.0201 0.0000
vt 0.9004 0.0775 0.0000
vt 0.8981 0.0775 0.0000
vt 0.8072 0.3637 0.0000
vt 0.8072 0.4021 0.0000
vt 0.0022 0.4021 0.0000
vt 0.0022 0.3637 0.0000
vt 0.4322 0.0025 0.0000
vt 0.8598 0.0025 0.0000
vt 0.8598 0.3598 0.0000
vt 0.4322 0.3598 0.0000
vt 0.8071 0.3637 0.0000
vt 0.8071 0.4021 0.0000
vt 0.0021 0.4021 0.0000
vt 0.0021 0.3637 0.0000
vt 0.0544 0.4461 0.0000
vt 0.2604 0.4461 0.0000
vt 0.2604 0.6182 0.0000
vt 0.0544 0.6182 0.0000
# 24 texture coords

o Box001
g Box001
usemtl wire_115115115
s 2
f 1/1/1 2/2/2 3/3/3 4/4/4 
s 4
f 5/5/5 6/6/6 7/7/7 8/8/8 
s 8
f 1/9/1 4/10/4 6/11/6 5/12/5 
s 16
f 4/13/4 3/14/3 7/15/7 6/16/6 
s 32
f 3/17/3 2/18/2 8/19/8 7/20/7 
s 64
f 2/21/2 1/22/1 5/23/5 8/24/8 
# 6 polygons

#
# object Box002
#

v  77.0288 0.2842 45.0754
v  77.0288 0.2842 -74.3170
v  82.9712 0.2842 -74.3170
v  82.9712 0.2842 45.0754
v  77.0288 100.0490 45.0754
v  82.9712 100.0490 45.0754
v  82.9712 100.0490 -74.3170
v  77.0288 100.0490 -74.3170
# 8 vertices

vn -0.5774 -0.5774 0.5774
vn -0.5774 -0.5774 -0.5774
vn 0.5774 -0.5774 -0.5774
vn 0.5774 -0.5774 0.5774
vn -0.5774 0.5774 0.5774
vn 0.5774 0.5774 0.5774
vn 0.5774 0.5774 -0.5774
vn -0.5774 0.5774 -0.5774
# 8 vertex normals

vt 0.9614 0.0647 0.0000
vt 0.9614 0.0284 0.0000
vt 0.9632 0.0284 0.0000
vt 0.9632 0.0647 0.0000
vt 0.9749 0.0202 0.0000
vt 0.9777 0.0202 0.0000
vt 0.9777 0.0777 0.0000
vt 0.9749 0.0777 0.0000
vt 0.8069 0.3638 0.0000
vt 0.8069 0.4020 0.0000
vt 0.0019 0.4020 0.0000
vt 0.0019 0.3638 0.0000
vt 0.0544 0.4461 0.0000
vt 0.2604 0.4461 0.0000
vt 0.2604 0.6182 0.0000
vt 0.0544 0.6182 0.0000
vt 0.8071 0.3635 0.0000
vt 0.8071 0.4020 0.0000
vt 0.0021 0.4020 0.0000
vt 0.0021 0.3635 0.0000
vt 0.0021 0.0024 0.0000
vt 0.4297 0.0024 0.0000
vt 0.4297 0.3597 0.0000
vt 0.0021 0.3597 0.0000
# 24 texture coords

o Box002
g Box002
usemtl wire_115115115
s 2
f 9/25/9 10/26/10 11/27/11 12/28/12 
s 4
f 13/29/13 14/30/14 15/31/15 16/32/16 
s 8
f 9/33/9 12/34/12 14/35/14 13/36/13 
s 16
f 12/37/12 11/38/11 15/39/15 14/40/14 
s 32
f 11/41/11 10/42/10 16/43/16 15/44/15 
s 64
f 10/45/10 9/46/9 13/47/13 16/48/16 
# 6 polygons

#
# object Box003
#

v  -80.8916 0.2842 43.4807
v  -80.8916 0.2842 36.5149
v  -16.4984 0.2842 36.5149
v  -16.4984 0.2842 43.4807
v  15.6982 0.2842 36.5149
v  15.6982 0.2842 43.4807
v  80.0915 0.2842 36.5149
v  80.0915 0.2842 43.4807
v  -80.8916 99.3603 43.4807
v  -16.4984 99.3603 43.4807
v  -16.4984 99.3603 36.5149
v  -80.8916 99.3603 36.5149
v  15.6982 99.3603 43.4807
v  15.6982 99.3603 36.5149
v  80.0915 99.3603 43.4807
v  80.0915 99.3603 36.5149
v  -16.4984 39.9146 43.4807
v  -80.8916 39.9146 43.4807
v  15.6982 39.9146 43.4807
v  80.0915 39.9146 43.4807
v  -16.4984 79.5451 43.4807
v  -80.8916 79.5451 43.4807
v  80.0915 79.5451 43.4807
v  15.6982 79.5451 43.4807
v  80.0915 39.9146 36.5149
v  80.0915 79.5451 36.5149
v  15.6982 39.9146 36.5149
v  -16.4984 39.9146 36.5149
v  -80.8916 39.9146 36.5149
v  15.6982 79.5451 36.5149
v  -80.8916 79.5451 36.5149
v  -16.4984 79.5451 36.5149
# 32 vertices

vn -0.5774 -0.5774 0.5774
vn -0.5774 -0.5774 -0.5774
vn 0.0000 -0.7071 -0.7071
vn 0.0000 -0.7071 0.7071
vn 0.5774 -0.5774 -0.5774
vn 0.5774 -0.5774 0.5774
vn -0.5774 0.5774 0.5774
vn 0.0000 0.7071 0.7071
vn 0.0000 0.7071 -0.7071
vn -0.5774 0.5774 -0.5774
vn 0.5774 0.5774 0.5774
vn 0.5774 0.5774 -0.5774
vn 0.3015 0.3015 0.9045
vn -0.7071 0.0000 0.7071
vn -0.3015 0.3015 0.9045
vn 0.7071 0.0000 0.7071
vn 0.3015 -0.3015 0.9045
vn 0.7071 -0.0000 0.7071
vn -0.3015 -0.3015 0.9045
vn 0.7071 0.0000 -0.7071
vn 0.7071 -0.0000 -0.7071
vn -0.3015 0.3015 -0.9045
vn 0.3015 0.3015 -0.9045
vn -0.7071 0.0000 -0.7071
vn -0.3015 -0.3015 -0.9045
vn 0.3015 -0.3015 -0.9045
# 26 vertex normals

vt 0.9134 0.0642 0.0000
vt 0.9134 0.0621 0.0000
vt 0.9330 0.0621 0.0000
vt 0.9330 0.0642 0.0000
vt 0.9428 0.0621 0.0000
vt 0.9428 0.0642 0.0000
vt 0.9623 0.0621 0.0000
vt 0.9623 0.0642 0.0000
vt 0.8989 0.0210 0.0000
vt 0.9299 0.0210 0.0000
vt 0.9299 0.0244 0.0000
vt 0.8989 0.0244 0.0000
vt 0.9454 0.0210 0.0000
vt 0.9454 0.0244 0.0000
vt 0.9764 0.0210 0.0000
vt 0.9764 0.0244 0.0000
vt 0.3937 0.6260 0.0000
vt 0.6356 0.6260 0.0000
vt 0.6356 0.7749 0.0000
vt 0.3937 0.7749 0.0000
vt 0.7565 0.6260 0.0000
vt 0.7565 0.7749 0.0000
vt 0.9984 0.6260 0.0000
vt 0.9984 0.7749 0.0000
vt 0.6356 0.9238 0.0000
vt 0.3937 0.9238 0.0000
vt 0.9984 0.9238 0.0000
vt 0.7565 0.9238 0.0000
vt 0.6356 0.9982 0.0000
vt 0.3937 0.9982 0.0000
vt 0.7565 0.9982 0.0000
vt 0.9984 0.9982 0.0000
vt 0.9887 0.0013 0.0000
vt 0.9986 0.0013 0.0000
vt 0.9986 0.0053 0.0000
vt 0.9887 0.0053 0.0000
vt 0.9986 0.0092 0.0000
vt 0.9887 0.0092 0.0000
vt 0.9986 0.0112 0.0000
vt 0.9887 0.0112 0.0000
vt 0.0026 0.6853 0.0000
vt 0.0026 0.4054 0.0000
vt 0.0518 0.4054 0.0000
vt 0.0518 0.6853 0.0000
vt 0.3922 0.6856 0.0000
vt 0.1353 0.6856 0.0000
vt 0.1353 0.6300 0.0000
vt 0.3922 0.6300 0.0000
# 48 texture coords

o Box003
g Box003
usemtl wire_115115115
s 2
f 17/49/17 18/50/18 19/51/19 20/52/20 
f 20/52/20 19/51/19 21/53/19 22/54/20 
f 22/54/20 21/53/19 23/55/21 24/56/22 
s 4
f 25/57/23 26/58/24 27/59/25 28/60/26 
f 26/58/24 29/61/24 30/62/25 27/59/25 
f 29/61/24 31/63/27 32/64/28 30/62/25 
s 8
f 17/65/17 20/66/20 33/67/29 34/68/30 
f 20/66/20 22/69/20 35/70/31 33/67/29 
f 22/69/20 24/71/22 36/72/32 35/70/31 
f 34/68/30 33/67/29 37/73/33 38/74/30 
f 35/70/31 36/72/32 39/75/34 40/76/35 
f 38/74/30 37/73/33 26/77/24 25/78/23 
f 37/73/33 40/76/35 29/79/24 26/77/24 
f 40/76/35 39/75/34 31/80/27 29/79/24 
s 16
f 24/81/22 23/82/21 41/83/36 36/84/32 
f 36/84/32 41/83/36 42/85/37 39/86/34 
f 39/86/34 42/85/37 32/87/28 31/88/27 
s 32
f 23/65/21 21/66/19 43/67/38 41/68/36 
f 21/66/19 19/69/19 44/70/39 43/67/38 
f 19/69/19 18/71/18 45/72/40 44/70/39 
f 41/68/36 43/67/38 46/73/41 42/74/37 
f 44/70/39 45/72/40 47/75/40 48/76/42 
f 42/74/37 46/73/41 30/77/25 32/78/28 
f 46/73/41 48/76/42 27/79/25 30/77/25 
f 48/76/42 47/75/40 28/80/26 27/79/25 
s 64
f 18/81/18 17/82/17 34/83/30 45/84/40 
f 45/84/40 34/83/30 38/85/30 47/86/40 
f 47/86/40 38/85/30 25/87/23 28/88/26 
s 3
f 46/89/41 43/90/38 35/91/31 40/92/35 
s 1
f 43/93/38 44/94/39 33/95/29 35/96/31 
s 3
f 44/91/39 48/92/42 37/89/33 33/90/29 
s 2
f 48/95/42 46/96/41 40/93/35 37/94/33 
# 32 polygons

#
# object Box004
#

v  -80.8916 0.2842 -67.9380
v  -80.8916 0.2842 -74.9038
v  80.0915 0.2842 -74.9038
v  80.0915 0.2842 -67.9380
v  -80.8916 33.3093 -67.9380
v  80.0915 33.3093 -67.9380
v  80.0915 33.3093 -74.9038
v  -80.8916 33.3093 -74.9038
# 8 vertices

vn -0.5774 -0.5774 0.5774
vn -0.5774 -0.5774 -0.5774
vn 0.5774 -0.5774 -0.5774
vn 0.5774 -0.5774 0.5774
vn -0.5774 0.5774 0.5774
vn 0.5774 0.5774 0.5774
vn 0.5774 0.5774 -0.5774
vn -0.5774 0.5774 -0.5774
# 8 vertex normals

vt 0.9134 0.0304 0.0000
vt 0.9134 0.0283 0.0000
vt 0.9623 0.0283 0.0000
vt 0.9623 0.0304 0.0000
vt 0.8821 0.0046 0.0000
vt 0.8821 0.3853 0.0000
vt 0.8656 0.3853 0.0000
vt 0.8656 0.0046 0.0000
vt 0.2685 0.4550 0.0000
vt 0.6516 0.4550 0.0000
vt 0.6516 0.5336 0.0000
vt 0.2685 0.5336 0.0000
vt 0.9887 0.0013 0.0000
vt 0.9986 0.0013 0.0000
vt 0.9986 0.0112 0.0000
vt 0.9887 0.0112 0.0000
vt 0.2687 0.5350 0.0000
vt 0.6517 0.5350 0.0000
vt 0.6517 0.6136 0.0000
vt 0.2687 0.6136 0.0000
# 20 texture coords

o Box004
g Box004
usemtl wire_115115115
s 2
f 49/97/43 50/98/44 51/99/45 52/100/46 
s 4
f 53/101/47 54/102/48 55/103/49 56/104/50 
s 8
f 49/105/43 52/106/46 54/107/48 53/108/47 
s 16
f 52/109/46 51/110/45 55/111/49 54/112/48 
s 32
f 51/113/45 50/114/44 56/115/50 55/116/49 
s 64
f 50/109/44 49/110/43 53/111/47 56/112/50 
# 6 polygons

#
# object Box005
#

v  -80.8916 102.0675 39.6942
v  -80.8916 95.1282 40.3013
v  80.0915 95.1282 40.3013
v  80.0915 102.0675 39.6942
v  -80.8916 90.6985 -90.2541
v  80.0915 90.6985 -90.2541
v  80.0915 83.7592 -89.6469
v  -80.8916 83.7592 -89.6469
# 8 vertices

vn -0.5774 0.6255 0.5248
vn -0.5774 -0.5248 0.6255
vn 0.5774 -0.5248 0.6255
vn 0.5774 0.6255 0.5248
vn -0.5774 0.5248 -0.6255
vn 0.5774 0.5248 -0.6255
vn 0.5774 -0.6255 -0.5248
vn -0.5774 -0.6255 -0.5248
# 8 vertex normals

vt 0.8859 0.0831 0.0000
vt 0.8859 0.0783 0.0000
vt 0.9961 0.0783 0.0000
vt 0.9961 0.0831 0.0000
vt 0.9299 0.4438 0.0000
vt 0.0549 0.4438 0.0000
vt 0.0549 0.4059 0.0000
vt 0.9299 0.4059 0.0000
vt 0.3870 0.9971 0.0000
vt 0.0036 0.9971 0.0000
vt 0.0036 0.6864 0.0000
vt 0.3870 0.6864 0.0000
vt 0.9704 0.6242 0.0000
vt 0.9983 0.6242 0.0000
vt 0.9983 0.1017 0.0000
vt 0.9704 0.1017 0.0000
vt 0.9983 0.6243 0.0000
vt 0.9704 0.6243 0.0000
vt 0.9704 0.1018 0.0000
vt 0.9983 0.1018 0.0000
# 20 texture coords

o Box005
g Box005
usemtl wire_115115115
s 2
f 57/117/51 58/118/52 59/119/53 60/120/54 
s 4
f 61/121/55 62/122/56 63/123/57 64/124/58 
s 8
f 57/125/51 60/126/54 62/127/56 61/128/55 
s 16
f 60/129/54 59/130/53 63/131/57 62/132/56 
s 32
f 59/125/53 58/126/52 64/127/58 63/128/57 
s 64
f 58/133/52 57/134/51 61/135/55 64/136/58 
# 6 polygons

